<?xml version="1.0" encoding="utf-8"?>
<!-- Generator: Adobe Illustrator 21.1.0, SVG Export Plug-In . SVG Version: 6.00 Build 0)  -->
<svg version="1.1" id="Layer_1" xmlns="http://www.w3.org/2000/svg" xmlns:xlink="http://www.w3.org/1999/xlink" x="0px" y="0px"
	 viewBox="0 0 2560 1440" style="enable-background:new 0 0 2560 1440;" xml:space="preserve">
<style type="text/css">
	.st0{display:none;fill:#FFFFFF;}
	.st1{fill:#FFFFFF;}
</style>
<g id="XMLID_7_">
	<polygon id="XMLID_21_" class="st0" points="-35.8,39.4 1236.7,39.4 1236.7,1311.8 -35.8,1311.8 -35.8,39.4 	"/>
	<path id="XMLID_20_" class="st1" d="M571,91.7c8.8-17.5,21.2-32.9,34.2-47.4c10.6,26.9,20.4,54.2,31.7,80.9
		c4.4,11.4,6.5,24.7,1.2,36.1c-6.6,15.3-19.8,27-35.1,33.2c5.8-11.9,12.2-24.6,10.9-38.2c-2.3-15.6-9.1-30-16-44
		c3.1,15.4,7.2,30.7,7,46.5c-0.5,12.3-4.8,24.1-11.1,34.6c-14.8-17.2-27.9-37-32.2-59.6C559.4,119.3,564.7,104.7,571,91.7L571,91.7z
		"/>
	<path id="XMLID_19_" class="st1" d="M711.2,152.8c41.2-30.7,91.7-45.3,141.3-55.6c-12.6,47.8-25.8,95.4-38.2,143.2
		c-4.8,26.5-13.6,54.5-34.9,72.4c-29,21.8-67.7,29.5-103,21.5c19.1-9.9,38.1-20.9,52.9-36.8c8.1-8.5,12.6-19.7,16.8-30.5
		c8.6-23.1,13.4-47.4,16.9-71.8c-11.7,29.6-24,59.5-42.9,85.4c-15.5,18.2-35,33.5-57.5,42.2c-5.2-41.6-3.6-85.2,12.2-124.4
		C681.4,179.6,695.7,164.8,711.2,152.8L711.2,152.8z"/>
	<path id="XMLID_18_" class="st1" d="M369.4,131.6C428.8,152,487.7,177.4,537,217c27.7,23,54.3,51.7,61.5,88.2
		c14.9,55.7,9.5,114.7-3.6,170.1c-26.7-13.5-48.1-35.3-66.2-58.8c-8-10.2-13.3-22.2-18.7-33.9c-14.4-32.8-24.8-67.3-33.2-102.1
		c1,37,4,74.2,13.5,110.1c3.8,13.2,7.9,26.8,16.4,37.9c17.9,24.5,42.1,43.6,67.3,60.2c-39.2,3.8-79.5-6.1-112.6-27.4
		c-13.2-8.8-26.3-18.5-35.2-31.9c-18.9-27.6-25.1-61.6-27-94.4C389.5,267.3,379.4,199.4,369.4,131.6L369.4,131.6z"/>
	<path id="XMLID_17_" class="st1" d="M198.3,157.3c29.1,9.9,57.7,22.1,83.3,39.3c18.3,12.8,36,28.4,45.2,49.3
		c12.4,35.1,9.7,73.6,1.3,109.3c-17-9.1-31-23.2-41.6-39.1c-12.6-22.4-19.6-47.4-26.4-72c1.4,25.6,2.9,51.9,12.7,75.9
		c9.3,18.5,26.6,31.1,43.2,42.7c-28.6,2.8-58.2-7.2-79-27c-16.1-16.6-20-40.6-21.7-62.7C209.8,234.4,203.9,195.9,198.3,157.3
		L198.3,157.3z"/>
	<path id="XMLID_16_" class="st1" d="M924.6,173c22.7-3.6,45.8-0.4,68.1,4.1c-15,19.3-30.3,38.3-45.3,57.6
		c-8.2,11.6-17.3,24.1-31.5,28.5c-18,5-37.4-0.7-51.9-11.9c13.4-1.4,28.4-2.1,39.2-11.3c11.5-10,20.3-22.8,28.5-35.6
		c-10.5,10.1-21,20.4-33.3,28.4c-11.3,7.2-24.8,9.9-37.9,10c6.7-20.5,16.5-40.5,32.1-55.6C901.1,178.8,913,175,924.6,173L924.6,173z
		"/>
	<path id="XMLID_15_" class="st1" d="M824.5,348c59.2-27.3,122.5-44.8,186.3-57.7c-24,89.6-48.3,179.1-72.1,268.7
		c-8.4,49.2-25.7,100.7-65,133.8c-54.2,40.2-126.3,55-191.9,39.4c36.6-17.5,71.9-39.3,99.8-69.1c12.4-12.8,19.6-29.4,26.5-45.6
		c18.8-46.9,28.9-96.7,35.9-146.6c-17,46.5-37.1,92.1-62.6,134.5c-8.2,13-16.1,26.4-27.1,37.4c-28,28.6-60.3,54.4-98.4,67.9
		c-8.8-76.8-6.9-157.3,22.5-229.8c7.4-24.1,22.9-44.6,40.3-62.3C748.8,388.3,786,366.1,824.5,348L824.5,348z"/>
	<path id="XMLID_14_" class="st1" d="M236.5,444.7c54.1,10.9,107.6,25.2,158.8,45.8c42.7,17.4,84.3,39.2,119.4,69.5
		c23.4,20.6,45,45.3,54.4,75.6c29.3,72.4,31.2,152.9,22.3,229.6c-41.7-15.1-76.9-44-106.2-76.6c-35.6-48.9-59.8-105.1-81.3-161.3
		c3,26,8.2,51.8,14.2,77.2c7.8,31.4,17.2,62.7,32.4,91.3c8.6,17,22.9,30,37.1,42.3c23.7,19.7,50.3,35.4,78.1,48.5
		c-49.9,11.9-103.4,6.2-150.1-14.7c-9.3-4.1-18.1-9.3-27-14.2c-13.8-8-25-19.3-35.7-30.9c-25.3-33.9-38.3-75.2-45-116.5
		C284.2,621.6,260.2,533.2,236.5,444.7L236.5,444.7z"/>
	<path id="XMLID_13_" class="st1" d="M88.4,536.3c29.8-5.8,63-10.7,91.2,3.5c21.5,14.1,32.8,38.8,41.1,62.3
		c-14,0.1-28.4-3.1-40.1-11.2c-11.4-8-21.5-17.6-31.5-27.3c8.6,13.2,17.5,26.5,29.7,36.6c10.9,8.3,25.1,9.1,38.1,10.3
		c-12.5,9.6-28.3,15.2-44.1,13.4c-12.8-0.7-23.5-9.3-31.1-19C124.6,581.6,106.2,559.2,88.4,536.3L88.4,536.3z"/>
	<path id="XMLID_12_" class="st1" d="M1011.5,579.7c8.8-9,21.4-13.1,33.6-15.1c22.5-3.1,45.3-0.4,67.3,4.3
		c-15.2,19.5-30.7,38.7-45.8,58.3c-7.9,11.1-16.7,22.9-30.1,27.6c-18.3,5.3-38.2-0.1-53-11.7c13.1-1.4,27.6-2,38.4-10.6
		c11.7-9.7,20.5-22.3,28.6-35.1c-10.6,9.9-21,20.2-33.4,27.9c-11.2,6.8-24.4,9.3-37.3,9.3C986.7,614.6,996.2,594.8,1011.5,579.7
		L1011.5,579.7z"/>
	<path id="XMLID_11_" class="st1" d="M146.2,735c51.6-17.7,106.6-31.9,161.6-24.8c6.7,41.4,19.7,82.6,45,116.5
		c-26.2-13.4-49.7-31.3-72.7-49.3c19.9,24.7,41.2,48.8,67.5,66.8c12,8.5,26.8,10.9,41,13.4c8.9,4.9,17.7,10.1,27,14.2
		c-26,16.5-57.8,24.5-88.5,20.6c-28.8-5.1-51.6-25.8-70-47.4C220.3,808.2,183.1,771.8,146.2,735L146.2,735z"/>
	<path id="XMLID_10_" class="st1" d="M907.6,754.3c11-7.3,22.5-14.8,35.8-16.7c20-3.2,40.3,0.4,59.4,6.1c23.8,7.2,46.2,18,67.8,30.2
		c-29.5,20.7-59.3,41-88.8,61.7c-15.9,12.8-34.4,25.3-55.6,25c-26.9-1.7-52-16.8-67.4-38.7c18,4.4,37.2,8.4,55.4,3.3
		c22.7-8.6,41.8-24.2,60-39.8c-20.8,10.9-41.9,21.9-64.9,27.4c-17.5,2.9-35.8,1.7-52.5-4.2C870.7,788.1,887.3,768.9,907.6,754.3
		L907.6,754.3z"/>
	<path id="XMLID_8_" class="st1" d="M647.3,963.8c30-60.1,59.8-120.2,89.8-180.2c-0.7,76,2.1,152,9,227.6
		c5.9,61.9,14.2,123.7,30.3,183.8c10.9,39.2,24.4,78.9,49.7,111.4c-113.7,0.1-227.4,0.3-341.2,0.5c35.8-37.3,61-83.9,76.9-132.8
		c21.9-67.6,23.9-140.7,11.2-210.3C597.8,963.7,622.5,963.7,647.3,963.8L647.3,963.8z"/>
</g>
<g id="XMLID_6_">
	<path id="XMLID_22_" class="st1" d="M926.6,1213.2V955h99.3c21.3,0,40.1,3.4,56.4,10.2c16.2,6.8,29.8,16,40.7,27.6
		c10.9,11.6,19.1,25.3,24.7,40.9c5.6,15.6,8.4,32.3,8.4,50c0,19.6-3.1,37.4-9.3,53.3c-6.2,15.9-15,29.5-26.4,40.7
		c-11.4,11.3-25.1,20-41.1,26.2c-16,6.2-33.8,9.3-53.5,9.3H926.6z M1084,1083.7c0-9.9-1.3-19-4-27.3c-2.7-8.2-6.5-15.3-11.5-21.1
		c-5-5.8-11.1-10.4-18.4-13.6c-7.3-3.3-15.4-4.9-24.4-4.9h-28.4v134.5h28.4c9.2,0,17.5-1.7,24.7-5.1c7.3-3.4,13.4-8.1,18.4-14.2
		c5-6.1,8.7-13.2,11.3-21.5C1082.7,1102.4,1084,1093.4,1084,1083.7z"/>
	<path id="XMLID_25_" class="st1" d="M1303.3,1215.4c-19.6,0-37.5-3.8-53.5-11.3c-16-7.5-29.7-17.4-41.1-29.6
		c-11.4-12.2-20.2-26.2-26.5-42c-6.3-15.8-9.5-32-9.5-48.7c0-17,3.3-33.3,9.8-49.1c6.5-15.8,15.7-29.6,27.5-41.6
		c11.8-12,25.7-21.6,41.8-28.7c16.1-7.1,33.8-10.7,52.9-10.7c19.6,0,37.5,3.8,53.5,11.3c16,7.5,29.7,17.5,41.1,29.8
		c11.4,12.4,20.2,26.4,26.4,42.2c6.2,15.8,9.3,31.9,9.3,48.4c0,17-3.3,33.3-9.8,48.9c-6.5,15.6-15.6,29.5-27.3,41.5
		c-11.6,12-25.5,21.6-41.6,28.9C1340.1,1211.7,1322.4,1215.4,1303.3,1215.4z M1244.7,1084.5c0,8.7,1.2,17.2,3.6,25.3
		c2.4,8.1,6.1,15.3,10.9,21.6c4.8,6.3,11,11.4,18.4,15.3c7.4,3.9,16.2,5.8,26.4,5.8c10.2,0,19-2,26.5-6c7.5-4,13.6-9.2,18.4-15.6
		c4.7-6.4,8.2-13.8,10.5-22c2.3-8.2,3.5-16.6,3.5-25.1c0-8.7-1.2-17.1-3.6-25.3c-2.4-8.1-6.1-15.3-11.1-21.5
		c-5-6.2-11.2-11.1-18.5-14.9c-7.4-3.8-16.1-5.6-26-5.6c-10.2,0-19,1.9-26.4,5.8c-7.4,3.9-13.5,9-18.4,15.5
		c-4.9,6.4-8.4,13.7-10.7,21.8C1245.9,1067.7,1244.7,1076,1244.7,1084.5z"/>
	<path id="XMLID_28_" class="st1" d="M1662.2,1016.8H1588v196.3h-70.9v-196.3h-74.5V955h219.6V1016.8z"/>
	<path id="XMLID_30_" class="st1" d="M1737.8,955l50.5,169.1l49.8-169.1h74.5l-94.9,258.2h-58.9l-96-258.2H1737.8z"/>
	<path id="XMLID_32_" class="st1" d="M1982.2,955l50.5,169.1l49.8-169.1h74.5l-94.9,258.2h-58.9l-96-258.2H1982.2z"/>
	<path id="XMLID_34_" class="st1" d="M2371.9,1213.2v-136l-43.3,95.6h-37.8l-43.3-95.6v136h-70.9V955h77.5l55.6,121.4l56-121.4h77.1
		v258.2H2371.9z"/>
</g>
</svg>
